<mxfile host="65bd71144e">
    <diagram id="d4xMZjdanI5C4ITCEl4U" name="Page-1">
        <mxGraphModel dx="1822" dy="2069" grid="1" gridSize="10" guides="1" tooltips="1" connect="1" arrows="1" fold="1" page="1" pageScale="1" pageWidth="850" pageHeight="1100" background="#000000" math="0" shadow="0">
            <root>
                <mxCell id="0"/>
                <mxCell id="1" parent="0"/>
                <mxCell id="2" value="student" style="swimlane;fontStyle=0;childLayout=stackLayout;horizontal=1;startSize=30;fillColor=#f0a30a;horizontalStack=0;resizeParent=1;resizeParentMax=0;resizeLast=0;collapsible=1;marginBottom=0;rounded=0;shadow=0;glass=0;sketch=0;arcSize=20;strokeColor=#BD7000;fontColor=#000000;" vertex="1" parent="1">
                    <mxGeometry x="-240" y="10" width="180" height="472" as="geometry"/>
                </mxCell>
                <mxCell id="3" value="idStudent" style="text;strokeColor=#666666;fillColor=#f5f5f5;align=left;verticalAlign=top;spacingLeft=4;spacingRight=4;overflow=hidden;rotatable=0;points=[[0,0.5],[1,0.5]];portConstraint=eastwest;fontColor=#333333;" vertex="1" parent="2">
                    <mxGeometry y="30" width="180" height="26" as="geometry"/>
                </mxCell>
                <mxCell id="4" value="idPeriod" style="text;strokeColor=#666666;fillColor=#f5f5f5;align=left;verticalAlign=top;spacingLeft=4;spacingRight=4;overflow=hidden;rotatable=0;points=[[0,0.5],[1,0.5]];portConstraint=eastwest;fontColor=#333333;" vertex="1" parent="2">
                    <mxGeometry y="56" width="180" height="26" as="geometry"/>
                </mxCell>
                <mxCell id="5" value="idStatus" style="text;strokeColor=#666666;fillColor=#f5f5f5;align=left;verticalAlign=top;spacingLeft=4;spacingRight=4;overflow=hidden;rotatable=0;points=[[0,0.5],[1,0.5]];portConstraint=eastwest;fontColor=#333333;" vertex="1" parent="2">
                    <mxGeometry y="82" width="180" height="26" as="geometry"/>
                </mxCell>
                <mxCell id="6" value="idWorkArea" style="text;strokeColor=#666666;fillColor=#f5f5f5;align=left;verticalAlign=top;spacingLeft=4;spacingRight=4;overflow=hidden;rotatable=0;points=[[0,0.5],[1,0.5]];portConstraint=eastwest;fontColor=#333333;" vertex="1" parent="2">
                    <mxGeometry y="108" width="180" height="26" as="geometry"/>
                </mxCell>
                <mxCell id="7" value="idUniversityDegree" style="text;strokeColor=#666666;fillColor=#f5f5f5;align=left;verticalAlign=top;spacingLeft=4;spacingRight=4;overflow=hidden;rotatable=0;points=[[0,0.5],[1,0.5]];portConstraint=eastwest;fontColor=#333333;" vertex="1" parent="2">
                    <mxGeometry y="134" width="180" height="26" as="geometry"/>
                </mxCell>
                <mxCell id="8" value="idProject" style="text;strokeColor=#666666;fillColor=#f5f5f5;align=left;verticalAlign=top;spacingLeft=4;spacingRight=4;overflow=hidden;rotatable=0;points=[[0,0.5],[1,0.5]];portConstraint=eastwest;fontColor=#333333;" vertex="1" parent="2">
                    <mxGeometry y="160" width="180" height="26" as="geometry"/>
                </mxCell>
                <mxCell id="9" value="idRegion" style="text;strokeColor=#666666;fillColor=#f5f5f5;align=left;verticalAlign=top;spacingLeft=4;spacingRight=4;overflow=hidden;rotatable=0;points=[[0,0.5],[1,0.5]];portConstraint=eastwest;fontColor=#333333;" vertex="1" parent="2">
                    <mxGeometry y="186" width="180" height="26" as="geometry"/>
                </mxCell>
                <mxCell id="10" value="idTypeOfIncome" style="text;strokeColor=#666666;fillColor=#f5f5f5;align=left;verticalAlign=top;spacingLeft=4;spacingRight=4;overflow=hidden;rotatable=0;points=[[0,0.5],[1,0.5]];portConstraint=eastwest;fontColor=#333333;" vertex="1" parent="2">
                    <mxGeometry y="212" width="180" height="26" as="geometry"/>
                </mxCell>
                <mxCell id="27" value="idClassTalent" style="text;strokeColor=#666666;fillColor=#f5f5f5;align=left;verticalAlign=top;spacingLeft=4;spacingRight=4;overflow=hidden;rotatable=0;points=[[0,0.5],[1,0.5]];portConstraint=eastwest;fontColor=#333333;" vertex="1" parent="2">
                    <mxGeometry y="238" width="180" height="26" as="geometry"/>
                </mxCell>
                <mxCell id="28" value="fullName" style="text;strokeColor=#666666;fillColor=#f5f5f5;align=left;verticalAlign=top;spacingLeft=4;spacingRight=4;overflow=hidden;rotatable=0;points=[[0,0.5],[1,0.5]];portConstraint=eastwest;fontColor=#333333;" vertex="1" parent="2">
                    <mxGeometry y="264" width="180" height="26" as="geometry"/>
                </mxCell>
                <mxCell id="30" value="schoolEmail" style="text;strokeColor=#666666;fillColor=#f5f5f5;align=left;verticalAlign=top;spacingLeft=4;spacingRight=4;overflow=hidden;rotatable=0;points=[[0,0.5],[1,0.5]];portConstraint=eastwest;fontColor=#333333;" vertex="1" parent="2">
                    <mxGeometry y="290" width="180" height="26" as="geometry"/>
                </mxCell>
                <mxCell id="31" value="personalEmail" style="text;strokeColor=#666666;fillColor=#f5f5f5;align=left;verticalAlign=top;spacingLeft=4;spacingRight=4;overflow=hidden;rotatable=0;points=[[0,0.5],[1,0.5]];portConstraint=eastwest;fontColor=#333333;" vertex="1" parent="2">
                    <mxGeometry y="316" width="180" height="26" as="geometry"/>
                </mxCell>
                <mxCell id="32" value="hours" style="text;strokeColor=#666666;fillColor=#f5f5f5;align=left;verticalAlign=top;spacingLeft=4;spacingRight=4;overflow=hidden;rotatable=0;points=[[0,0.5],[1,0.5]];portConstraint=eastwest;fontColor=#333333;" vertex="1" parent="2">
                    <mxGeometry y="342" width="180" height="26" as="geometry"/>
                </mxCell>
                <mxCell id="33" value="linkClass" style="text;strokeColor=#666666;fillColor=#f5f5f5;align=left;verticalAlign=top;spacingLeft=4;spacingRight=4;overflow=hidden;rotatable=0;points=[[0,0.5],[1,0.5]];portConstraint=eastwest;fontColor=#333333;" vertex="1" parent="2">
                    <mxGeometry y="368" width="180" height="26" as="geometry"/>
                </mxCell>
                <mxCell id="34" value="evidenceLink" style="text;strokeColor=#666666;fillColor=#f5f5f5;align=left;verticalAlign=top;spacingLeft=4;spacingRight=4;overflow=hidden;rotatable=0;points=[[0,0.5],[1,0.5]];portConstraint=eastwest;fontColor=#333333;" vertex="1" parent="2">
                    <mxGeometry y="394" width="180" height="26" as="geometry"/>
                </mxCell>
                <mxCell id="35" value="cag" style="text;strokeColor=#666666;fillColor=#f5f5f5;align=left;verticalAlign=top;spacingLeft=4;spacingRight=4;overflow=hidden;rotatable=0;points=[[0,0.5],[1,0.5]];portConstraint=eastwest;fontColor=#333333;" vertex="1" parent="2">
                    <mxGeometry y="420" width="180" height="26" as="geometry"/>
                </mxCell>
                <mxCell id="36" value="date" style="text;strokeColor=#666666;fillColor=#f5f5f5;align=left;verticalAlign=top;spacingLeft=4;spacingRight=4;overflow=hidden;rotatable=0;points=[[0,0.5],[1,0.5]];portConstraint=eastwest;fontColor=#333333;" vertex="1" parent="2">
                    <mxGeometry y="446" width="180" height="26" as="geometry"/>
                </mxCell>
                <mxCell id="14" value="period" style="swimlane;fontStyle=0;childLayout=stackLayout;horizontal=1;startSize=30;fillColor=#a20025;horizontalStack=0;resizeParent=1;resizeParentMax=0;resizeLast=0;collapsible=1;marginBottom=0;rounded=0;shadow=0;glass=0;sketch=0;strokeColor=#6F0000;arcSize=20;fontColor=#ffffff;labelBackgroundColor=none;" vertex="1" parent="1">
                    <mxGeometry x="-490" y="-400" width="170" height="394" as="geometry"/>
                </mxCell>
                <mxCell id="15" value="idPeriod" style="text;strokeColor=#666666;fillColor=#f5f5f5;align=left;verticalAlign=top;spacingLeft=4;spacingRight=4;overflow=hidden;rotatable=0;points=[[0,0.5],[1,0.5]];portConstraint=eastwest;labelBackgroundColor=none;fontColor=#333333;" vertex="1" parent="14">
                    <mxGeometry y="30" width="170" height="26" as="geometry"/>
                </mxCell>
                <mxCell id="16" value="idBootcamLocation" style="text;align=left;verticalAlign=top;spacingLeft=4;spacingRight=4;overflow=hidden;rotatable=0;points=[[0,0.5],[1,0.5]];portConstraint=eastwest;labelBackgroundColor=none;fillColor=#f5f5f5;fontColor=#333333;strokeColor=#666666;" vertex="1" parent="14">
                    <mxGeometry y="56" width="170" height="26" as="geometry"/>
                </mxCell>
                <mxCell id="17" value="regionsCovered" style="text;strokeColor=#666666;fillColor=#f5f5f5;align=left;verticalAlign=top;spacingLeft=4;spacingRight=4;overflow=hidden;rotatable=0;points=[[0,0.5],[1,0.5]];portConstraint=eastwest;fontColor=#333333;" vertex="1" parent="14">
                    <mxGeometry y="82" width="170" height="26" as="geometry"/>
                </mxCell>
                <mxCell id="37" value="linkWhatsapp" style="text;strokeColor=#666666;fillColor=#f5f5f5;align=left;verticalAlign=top;spacingLeft=4;spacingRight=4;overflow=hidden;rotatable=0;points=[[0,0.5],[1,0.5]];portConstraint=eastwest;fontColor=#333333;" vertex="1" parent="14">
                    <mxGeometry y="108" width="170" height="26" as="geometry"/>
                </mxCell>
                <mxCell id="38" value="linkClass" style="text;strokeColor=#666666;fillColor=#f5f5f5;align=left;verticalAlign=top;spacingLeft=4;spacingRight=4;overflow=hidden;rotatable=0;points=[[0,0.5],[1,0.5]];portConstraint=eastwest;fontColor=#333333;" vertex="1" parent="14">
                    <mxGeometry y="134" width="170" height="26" as="geometry"/>
                </mxCell>
                <mxCell id="39" value="date" style="text;strokeColor=#666666;fillColor=#f5f5f5;align=left;verticalAlign=top;spacingLeft=4;spacingRight=4;overflow=hidden;rotatable=0;points=[[0,0.5],[1,0.5]];portConstraint=eastwest;fontColor=#333333;" vertex="1" parent="14">
                    <mxGeometry y="160" width="170" height="26" as="geometry"/>
                </mxCell>
                <mxCell id="40" value="timeHours" style="text;strokeColor=#666666;fillColor=#f5f5f5;align=left;verticalAlign=top;spacingLeft=4;spacingRight=4;overflow=hidden;rotatable=0;points=[[0,0.5],[1,0.5]];portConstraint=eastwest;fontColor=#333333;" vertex="1" parent="14">
                    <mxGeometry y="186" width="170" height="26" as="geometry"/>
                </mxCell>
                <mxCell id="41" value="dateStartSS" style="text;strokeColor=#666666;fillColor=#f5f5f5;align=left;verticalAlign=top;spacingLeft=4;spacingRight=4;overflow=hidden;rotatable=0;points=[[0,0.5],[1,0.5]];portConstraint=eastwest;fontColor=#333333;" vertex="1" parent="14">
                    <mxGeometry y="212" width="170" height="26" as="geometry"/>
                </mxCell>
                <mxCell id="42" value="dateFinishedSS" style="text;strokeColor=#666666;fillColor=#f5f5f5;align=left;verticalAlign=top;spacingLeft=4;spacingRight=4;overflow=hidden;rotatable=0;points=[[0,0.5],[1,0.5]];portConstraint=eastwest;fontColor=#333333;" vertex="1" parent="14">
                    <mxGeometry y="238" width="170" height="26" as="geometry"/>
                </mxCell>
                <mxCell id="43" value="dateFinishedSS" style="text;strokeColor=#666666;fillColor=#f5f5f5;align=left;verticalAlign=top;spacingLeft=4;spacingRight=4;overflow=hidden;rotatable=0;points=[[0,0.5],[1,0.5]];portConstraint=eastwest;fontColor=#333333;" vertex="1" parent="14">
                    <mxGeometry y="264" width="170" height="26" as="geometry"/>
                </mxCell>
                <mxCell id="44" value="isLiveRegistration&#10;" style="text;strokeColor=#666666;fillColor=#f5f5f5;align=left;verticalAlign=top;spacingLeft=4;spacingRight=4;overflow=hidden;rotatable=0;points=[[0,0.5],[1,0.5]];portConstraint=eastwest;fontColor=#333333;" vertex="1" parent="14">
                    <mxGeometry y="290" width="170" height="26" as="geometry"/>
                </mxCell>
                <mxCell id="45" value="previousInformationSession" style="text;strokeColor=#666666;fillColor=#f5f5f5;align=left;verticalAlign=top;spacingLeft=4;spacingRight=4;overflow=hidden;rotatable=0;points=[[0,0.5],[1,0.5]];portConstraint=eastwest;fontColor=#333333;" vertex="1" parent="14">
                    <mxGeometry y="316" width="170" height="26" as="geometry"/>
                </mxCell>
                <mxCell id="46" value="registrationDate" style="text;strokeColor=#666666;fillColor=#f5f5f5;align=left;verticalAlign=top;spacingLeft=4;spacingRight=4;overflow=hidden;rotatable=0;points=[[0,0.5],[1,0.5]];portConstraint=eastwest;fontColor=#333333;" vertex="1" parent="14">
                    <mxGeometry y="342" width="170" height="26" as="geometry"/>
                </mxCell>
                <mxCell id="47" value="informativeDate" style="text;strokeColor=#666666;fillColor=#f5f5f5;align=left;verticalAlign=top;spacingLeft=4;spacingRight=4;overflow=hidden;rotatable=0;points=[[0,0.5],[1,0.5]];portConstraint=eastwest;fontColor=#333333;" vertex="1" parent="14">
                    <mxGeometry y="368" width="170" height="26" as="geometry"/>
                </mxCell>
                <mxCell id="19" style="edgeStyle=orthogonalEdgeStyle;rounded=0;orthogonalLoop=1;jettySize=auto;html=1;entryX=1;entryY=0.5;entryDx=0;entryDy=0;exitX=0;exitY=0.5;exitDx=0;exitDy=0;fillColor=#d5e8d4;strokeColor=#82b366;" edge="1" parent="1" source="4" target="15">
                    <mxGeometry relative="1" as="geometry"/>
                </mxCell>
                <mxCell id="48" value="status" style="swimlane;fontStyle=0;childLayout=stackLayout;horizontal=1;startSize=30;fillColor=#a20025;horizontalStack=0;resizeParent=1;resizeParentMax=0;resizeLast=0;collapsible=1;marginBottom=0;rounded=0;shadow=0;glass=0;sketch=0;strokeColor=#6F0000;arcSize=20;fontColor=#ffffff;" vertex="1" parent="1">
                    <mxGeometry x="-490" y="10" width="170" height="82" as="geometry"/>
                </mxCell>
                <mxCell id="49" value="idSatus" style="text;strokeColor=#666666;fillColor=#f5f5f5;align=left;verticalAlign=top;spacingLeft=4;spacingRight=4;overflow=hidden;rotatable=0;points=[[0,0.5],[1,0.5]];portConstraint=eastwest;fontColor=#333333;" vertex="1" parent="48">
                    <mxGeometry y="30" width="170" height="26" as="geometry"/>
                </mxCell>
                <mxCell id="54" value="statusType" style="text;strokeColor=#666666;fillColor=#f5f5f5;align=left;verticalAlign=top;spacingLeft=4;spacingRight=4;overflow=hidden;rotatable=0;points=[[0,0.5],[1,0.5]];portConstraint=eastwest;fontColor=#333333;" vertex="1" parent="48">
                    <mxGeometry y="56" width="170" height="26" as="geometry"/>
                </mxCell>
                <mxCell id="64" value="workArea" style="swimlane;fontStyle=0;childLayout=stackLayout;horizontal=1;startSize=30;fillColor=#a20025;horizontalStack=0;resizeParent=1;resizeParentMax=0;resizeLast=0;collapsible=1;marginBottom=0;rounded=0;shadow=0;glass=0;sketch=0;strokeColor=#6F0000;arcSize=20;fontColor=#ffffff;" vertex="1" parent="1">
                    <mxGeometry x="-490" y="100" width="170" height="82" as="geometry"/>
                </mxCell>
                <mxCell id="65" value="idWorkArea" style="text;strokeColor=#666666;fillColor=#f5f5f5;align=left;verticalAlign=top;spacingLeft=4;spacingRight=4;overflow=hidden;rotatable=0;points=[[0,0.5],[1,0.5]];portConstraint=eastwest;fontColor=#333333;" vertex="1" parent="64">
                    <mxGeometry y="30" width="170" height="26" as="geometry"/>
                </mxCell>
                <mxCell id="66" value="name" style="text;strokeColor=#666666;fillColor=#f5f5f5;align=left;verticalAlign=top;spacingLeft=4;spacingRight=4;overflow=hidden;rotatable=0;points=[[0,0.5],[1,0.5]];portConstraint=eastwest;fontColor=#333333;" vertex="1" parent="64">
                    <mxGeometry y="56" width="170" height="26" as="geometry"/>
                </mxCell>
                <mxCell id="67" style="edgeStyle=orthogonalEdgeStyle;rounded=0;orthogonalLoop=1;jettySize=auto;html=1;entryX=1;entryY=0.5;entryDx=0;entryDy=0;exitX=0;exitY=0.5;exitDx=0;exitDy=0;fillColor=#d5e8d4;strokeColor=#82b366;" edge="1" parent="1" source="5" target="49">
                    <mxGeometry relative="1" as="geometry">
                        <mxPoint x="-230" y="89" as="sourcePoint"/>
                        <mxPoint x="-310" y="-347" as="targetPoint"/>
                        <Array as="points">
                            <mxPoint x="-290" y="105"/>
                            <mxPoint x="-290" y="53"/>
                        </Array>
                    </mxGeometry>
                </mxCell>
                <mxCell id="68" style="edgeStyle=orthogonalEdgeStyle;rounded=0;orthogonalLoop=1;jettySize=auto;html=1;entryX=1;entryY=0.5;entryDx=0;entryDy=0;exitX=0;exitY=0.5;exitDx=0;exitDy=0;fillColor=#d5e8d4;strokeColor=#82b366;" edge="1" parent="1" source="6" target="65">
                    <mxGeometry relative="1" as="geometry">
                        <mxPoint x="-230" y="115" as="sourcePoint"/>
                        <mxPoint x="-310" y="63" as="targetPoint"/>
                        <Array as="points">
                            <mxPoint x="-300" y="131"/>
                            <mxPoint x="-300" y="143"/>
                        </Array>
                    </mxGeometry>
                </mxCell>
                <mxCell id="69" value="universityDegree" style="swimlane;fontStyle=0;childLayout=stackLayout;horizontal=1;startSize=30;fillColor=#a20025;horizontalStack=0;resizeParent=1;resizeParentMax=0;resizeLast=0;collapsible=1;marginBottom=0;rounded=0;shadow=0;glass=0;sketch=0;strokeColor=#6F0000;arcSize=20;fontColor=#ffffff;" vertex="1" parent="1">
                    <mxGeometry x="-490" y="190" width="170" height="82" as="geometry"/>
                </mxCell>
                <mxCell id="70" value="idUniversityDegree" style="text;strokeColor=#666666;fillColor=#f5f5f5;align=left;verticalAlign=top;spacingLeft=4;spacingRight=4;overflow=hidden;rotatable=0;points=[[0,0.5],[1,0.5]];portConstraint=eastwest;fontColor=#333333;" vertex="1" parent="69">
                    <mxGeometry y="30" width="170" height="26" as="geometry"/>
                </mxCell>
                <mxCell id="71" value="abbreviationDegree" style="text;strokeColor=#666666;fillColor=#f5f5f5;align=left;verticalAlign=top;spacingLeft=4;spacingRight=4;overflow=hidden;rotatable=0;points=[[0,0.5],[1,0.5]];portConstraint=eastwest;fontColor=#333333;" vertex="1" parent="69">
                    <mxGeometry y="56" width="170" height="26" as="geometry"/>
                </mxCell>
                <mxCell id="72" style="edgeStyle=orthogonalEdgeStyle;rounded=0;orthogonalLoop=1;jettySize=auto;html=1;entryX=1;entryY=0.5;entryDx=0;entryDy=0;exitX=0;exitY=0.5;exitDx=0;exitDy=0;fillColor=#d5e8d4;strokeColor=#82b366;" edge="1" parent="1" source="7" target="70">
                    <mxGeometry relative="1" as="geometry">
                        <mxPoint x="-230" y="141" as="sourcePoint"/>
                        <mxPoint x="-310" y="153" as="targetPoint"/>
                        <Array as="points">
                            <mxPoint x="-300" y="157"/>
                            <mxPoint x="-300" y="233"/>
                        </Array>
                    </mxGeometry>
                </mxCell>
                <mxCell id="73" value="project" style="swimlane;fontStyle=0;childLayout=stackLayout;horizontal=1;startSize=30;fillColor=#a20025;horizontalStack=0;resizeParent=1;resizeParentMax=0;resizeLast=0;collapsible=1;marginBottom=0;rounded=0;shadow=0;glass=0;sketch=0;strokeColor=#6F0000;arcSize=20;fontColor=#ffffff;" vertex="1" parent="1">
                    <mxGeometry x="-490" y="280" width="170" height="82" as="geometry"/>
                </mxCell>
                <mxCell id="75" value="idProject" style="text;strokeColor=#666666;fillColor=#f5f5f5;align=left;verticalAlign=top;spacingLeft=4;spacingRight=4;overflow=hidden;rotatable=0;points=[[0,0.5],[1,0.5]];portConstraint=eastwest;fontColor=#333333;" vertex="1" parent="73">
                    <mxGeometry y="30" width="170" height="26" as="geometry"/>
                </mxCell>
                <mxCell id="92" value="projectName" style="text;strokeColor=#666666;fillColor=#f5f5f5;align=left;verticalAlign=top;spacingLeft=4;spacingRight=4;overflow=hidden;rotatable=0;points=[[0,0.5],[1,0.5]];portConstraint=eastwest;fontColor=#333333;" vertex="1" parent="73">
                    <mxGeometry y="56" width="170" height="26" as="geometry"/>
                </mxCell>
                <mxCell id="76" style="edgeStyle=orthogonalEdgeStyle;rounded=0;orthogonalLoop=1;jettySize=auto;html=1;entryX=1;entryY=0.5;entryDx=0;entryDy=0;exitX=0;exitY=0.5;exitDx=0;exitDy=0;fillColor=#d5e8d4;strokeColor=#82b366;" edge="1" parent="1" source="8">
                    <mxGeometry relative="1" as="geometry">
                        <mxPoint x="-230" y="167" as="sourcePoint"/>
                        <mxPoint x="-320" y="323" as="targetPoint"/>
                        <Array as="points">
                            <mxPoint x="-290" y="183"/>
                            <mxPoint x="-290" y="323"/>
                        </Array>
                    </mxGeometry>
                </mxCell>
                <mxCell id="77" style="edgeStyle=orthogonalEdgeStyle;rounded=0;orthogonalLoop=1;jettySize=auto;html=1;entryX=1;entryY=0.5;entryDx=0;entryDy=0;exitX=0;exitY=0.5;exitDx=0;exitDy=0;fillColor=#d5e8d4;strokeColor=#82b366;" edge="1" parent="1" source="9" target="79">
                    <mxGeometry relative="1" as="geometry">
                        <mxPoint x="-230" y="193" as="sourcePoint"/>
                        <mxPoint x="-310" y="333" as="targetPoint"/>
                        <Array as="points">
                            <mxPoint x="-280" y="209"/>
                            <mxPoint x="-280" y="413"/>
                        </Array>
                    </mxGeometry>
                </mxCell>
                <mxCell id="78" value="region" style="swimlane;fontStyle=0;childLayout=stackLayout;horizontal=1;startSize=30;fillColor=#a20025;horizontalStack=0;resizeParent=1;resizeParentMax=0;resizeLast=0;collapsible=1;marginBottom=0;rounded=0;shadow=0;glass=0;sketch=0;strokeColor=#6F0000;arcSize=20;fontColor=#ffffff;" vertex="1" parent="1">
                    <mxGeometry x="-490" y="370" width="170" height="82" as="geometry"/>
                </mxCell>
                <mxCell id="79" value="idRegion" style="text;strokeColor=#666666;fillColor=#f5f5f5;align=left;verticalAlign=top;spacingLeft=4;spacingRight=4;overflow=hidden;rotatable=0;points=[[0,0.5],[1,0.5]];portConstraint=eastwest;fontColor=#333333;" vertex="1" parent="78">
                    <mxGeometry y="30" width="170" height="26" as="geometry"/>
                </mxCell>
                <mxCell id="80" value="place" style="text;strokeColor=#666666;fillColor=#f5f5f5;align=left;verticalAlign=top;spacingLeft=4;spacingRight=4;overflow=hidden;rotatable=0;points=[[0,0.5],[1,0.5]];portConstraint=eastwest;fontColor=#333333;" vertex="1" parent="78">
                    <mxGeometry y="56" width="170" height="26" as="geometry"/>
                </mxCell>
                <mxCell id="81" value="typeOfIncome" style="swimlane;fontStyle=0;childLayout=stackLayout;horizontal=1;startSize=30;fillColor=#a20025;horizontalStack=0;resizeParent=1;resizeParentMax=0;resizeLast=0;collapsible=1;marginBottom=0;rounded=0;shadow=0;glass=0;sketch=0;strokeColor=#6F0000;arcSize=20;fontColor=#ffffff;" vertex="1" parent="1">
                    <mxGeometry x="-490" y="460" width="170" height="82" as="geometry"/>
                </mxCell>
                <mxCell id="82" value="idTypeOfIncome" style="text;strokeColor=#666666;fillColor=#f5f5f5;align=left;verticalAlign=top;spacingLeft=4;spacingRight=4;overflow=hidden;rotatable=0;points=[[0,0.5],[1,0.5]];portConstraint=eastwest;fontColor=#333333;" vertex="1" parent="81">
                    <mxGeometry y="30" width="170" height="26" as="geometry"/>
                </mxCell>
                <mxCell id="83" value="typeName" style="text;strokeColor=#666666;fillColor=#f5f5f5;align=left;verticalAlign=top;spacingLeft=4;spacingRight=4;overflow=hidden;rotatable=0;points=[[0,0.5],[1,0.5]];portConstraint=eastwest;fontColor=#333333;" vertex="1" parent="81">
                    <mxGeometry y="56" width="170" height="26" as="geometry"/>
                </mxCell>
                <mxCell id="84" style="edgeStyle=orthogonalEdgeStyle;rounded=0;orthogonalLoop=1;jettySize=auto;html=1;entryX=1;entryY=0.5;entryDx=0;entryDy=0;exitX=0;exitY=0.5;exitDx=0;exitDy=0;fillColor=#d5e8d4;strokeColor=#82b366;" edge="1" parent="1" source="10" target="82">
                    <mxGeometry relative="1" as="geometry">
                        <mxPoint x="-230" y="219" as="sourcePoint"/>
                        <mxPoint x="-310" y="423" as="targetPoint"/>
                        <Array as="points">
                            <mxPoint x="-270" y="235"/>
                            <mxPoint x="-270" y="503"/>
                        </Array>
                    </mxGeometry>
                </mxCell>
                <mxCell id="85" value="classTalent" style="swimlane;fontStyle=0;childLayout=stackLayout;horizontal=1;startSize=30;fillColor=#a20025;horizontalStack=0;resizeParent=1;resizeParentMax=0;resizeLast=0;collapsible=1;marginBottom=0;rounded=0;shadow=0;glass=0;sketch=0;strokeColor=#6F0000;arcSize=20;fontColor=#ffffff;" vertex="1" parent="1">
                    <mxGeometry x="-490" y="550" width="170" height="82" as="geometry"/>
                </mxCell>
                <mxCell id="86" value="idClassTalent" style="text;strokeColor=#666666;fillColor=#f5f5f5;align=left;verticalAlign=top;spacingLeft=4;spacingRight=4;overflow=hidden;rotatable=0;points=[[0,0.5],[1,0.5]];portConstraint=eastwest;fontColor=#333333;" vertex="1" parent="85">
                    <mxGeometry y="30" width="170" height="26" as="geometry"/>
                </mxCell>
                <mxCell id="87" value="className" style="text;strokeColor=#666666;fillColor=#f5f5f5;align=left;verticalAlign=top;spacingLeft=4;spacingRight=4;overflow=hidden;rotatable=0;points=[[0,0.5],[1,0.5]];portConstraint=eastwest;fontColor=#333333;" vertex="1" parent="85">
                    <mxGeometry y="56" width="170" height="26" as="geometry"/>
                </mxCell>
                <mxCell id="88" style="edgeStyle=orthogonalEdgeStyle;rounded=0;orthogonalLoop=1;jettySize=auto;html=1;entryX=1;entryY=0.5;entryDx=0;entryDy=0;exitX=0;exitY=0.5;exitDx=0;exitDy=0;fillColor=#d5e8d4;strokeColor=#82b366;" edge="1" parent="1" source="27" target="86">
                    <mxGeometry relative="1" as="geometry">
                        <mxPoint x="-230" y="245" as="sourcePoint"/>
                        <mxPoint x="-310" y="513" as="targetPoint"/>
                        <Array as="points">
                            <mxPoint x="-260" y="261"/>
                            <mxPoint x="-260" y="593"/>
                        </Array>
                    </mxGeometry>
                </mxCell>
            </root>
        </mxGraphModel>
    </diagram>
</mxfile>